<svg width="52" height="76" viewBox="0 0 52 76" fill="none" xmlns="http://www.w3.org/2000/svg">
<path d="M26 60.1666V72.8333" stroke="#969696" stroke-width="6.33333" stroke-linecap="round" stroke-linejoin="round"/>
<path d="M26 3.16669C23.4804 3.16669 21.0641 4.16758 19.2825 5.94917C17.5009 7.73077 16.5 10.1471 16.5 12.6667V38C16.5 40.5196 17.5009 42.9359 19.2825 44.7175C21.0641 46.4991 23.4804 47.5 26 47.5C28.5196 47.5 30.9359 46.4991 32.7175 44.7175C34.4991 42.9359 35.5 40.5196 35.5 38V12.6667C35.5 10.1471 34.4991 7.73077 32.7175 5.94917C30.9359 4.16758 28.5196 3.16669 26 3.16669V3.16669Z" stroke="#969696" stroke-width="6.33333" stroke-linecap="round" stroke-linejoin="round"/>
<path d="M48.1667 31.6666V38C48.1667 43.8789 45.8313 49.5171 41.6742 53.6742C37.5172 57.8312 31.879 60.1666 26 60.1666C20.121 60.1666 14.4829 57.8312 10.3258 53.6742C6.16875 49.5171 3.83334 43.8789 3.83334 38V31.6666" stroke="#969696" stroke-width="6.33333" stroke-linecap="round" stroke-linejoin="round"/>
<path d="M13.3333 72.8334H38.6667" stroke="#969696" stroke-width="6.33333" stroke-linecap="round" stroke-linejoin="round"/>
</svg>
